# xmcd
#
# Track frame offsets:
#	180
#	9917
#	20848
#	31073
#	42843
#	54575
#	64396
#	75294
#	88056
#	99868
#	112707
#	122975
#	140028
#	154169
#	166433
#	174596
#	181369
#	194726
#	212486
#	237404
#	252079
#	264533
#	276446
#	288502
#	298077
#
# Disc length: 4270 seconds
#
# Revision: 1
# Processed by: cddbd v1.5.2PL0 Copyright (c) Steve Scherf et al.
# Submitted via: audiograbber 1.83.01
#
DISCID=6a10ac19
DTITLE=Andre Williams - Mr. Rhythm Is Back
DYEAR=1900
DGENRE=Soul
TTITLE0=Sweet Little Pussycat
TTITLE1=Loose Juice
TTITLE2=You Got It And I Want It
TTITLE3=I Can't Stop Crying
TTITLE4=Pearl Time
TTITLE5=Soul Groove
TTITLE6=Soul Party A Go Go
TTITLE7=Hard Hustling
TTITLE8=Humpin', Bumpin' And Thumpin'
TTITLE9=It's Gonna Be Fine In '69
TTITLE10=Do The Popcorn
TTITLE11=Mrs. Mother U.S.A.
TTITLE12=Girdle Up (Vocal)
TTITLE13=Girdle Up (Instrumental)
TTITLE14=Rib Tibs - Part 1
TTITLE15=Rib Tibs - Part 2
TTITLE16=Cadillac Jack
TTITLE17=Bacon Fat '86
TTITLE18=Jusr Because Of A Kiss '86
TTITLE19=Please Give Me A Chance
TTITLE20=I Still Love You
TTITLE21=The Stroke
TTITLE22=The African Twist
TTITLE23=I'm Movin' On
TTITLE24=I Just Want A Little Love, Love, Love, Lovin'
EXTD=
EXTT0=
EXTT1=
EXTT2=
EXTT3=
EXTT4=
EXTT5=
EXTT6=
EXTT7=
EXTT8=
EXTT9=
EXTT10=
EXTT11=
EXTT12=
EXTT13=
EXTT14=
EXTT15=
EXTT16=
EXTT17=
EXTT18=
EXTT19=
EXTT20=
EXTT21=
EXTT22=
EXTT23=
EXTT24=
PLAYORDER=
